<?xml version="1.0" encoding="UTF-8"?><!-- Generator: Adobe Illustrator 12.0.0, SVG Export Plug-In . SVG Version: 6.00 Build 51448)  --><!DOCTYPE svg PUBLIC "-//W3C//DTD SVG 1.1//EN" "http://www.w3.org/Graphics/SVG/1.1/DTD/svg11.dtd" [
<!ENTITY ns_svg "http://www.w3.org/2000/svg">
<!ENTITY ns_xlink "http://www.w3.org/1999/xlink">
]><svg width="576" height="694" viewBox="46.058926756353 54.044585305106 576.73786547085 694.57300373599" xmlns="http://www.w3.org/2000/svg" xmlns:xlink="http://www.w3.org/1999/xlink" version="1.1" id="Ebene_1" overflow="visible" enable-background="new 0 0 669.857 803.663" xml:space="preserve">
<polygon xmlns="http://www.w3.org/2000/svg" points="49.223,59.055 620.634,59.055 334.729,744.608 "/>
<polygon xmlns="http://www.w3.org/2000/svg" fill="#FFFFFF" points="69.117,72.402 600.466,72.402 334.791,710.002 "/>
<polygon xmlns="http://www.w3.org/2000/svg" fill="#E01913" points="104.493,157.302 107.959,165.623 444.446,165.637 215.542,423.813 256.34,521.723 547.606,199.258   565.089,157.302 "/>
<rect xmlns="http://www.w3.org/2000/svg" fill="none" width="669.857" height="803.663"/>
<path xmlns="http://www.w3.org/2000/svg" d="M526.966,138.124l2.253,3.219c1.384,2.365,3.021,4.13,4.916,5.292c1.893,1.165,4.313,1.875,7.26,2.128v2.564h-61.141v-2.564  c2.646-0.109,4.479-0.464,5.501-1.064c1.021-0.599,1.533-1.554,1.533-2.864c0-2.545-2.316-6.401-6.944-11.566  c-4.568-5.165-10.7-10.729-18.396-16.696l-6.583,1.201v20.569c0,2.51,0.285,4.456,0.857,5.837c0.569,1.383,1.578,2.41,3.021,3.083  c1.441,0.674,3.547,1.173,6.312,1.5v2.564h-57.352v-2.564c2.886-0.399,5.005-0.936,6.358-1.609c1.351-0.672,2.298-1.691,2.838-3.056  c0.542-1.363,0.813-3.281,0.813-5.755V91.204c0-3.673-0.662-6.219-1.984-7.638c-1.323-1.418-3.998-2.346-8.025-2.783V78.11h84.584  c20.441,0,30.659,3.801,30.659,11.403c0,2.473-0.887,4.765-2.66,6.874c-1.773,2.11-4.613,4.166-8.52,6.165  c-3.909,2.001-8.899,3.983-14.97,5.947C510.522,117.884,520.411,127.758,526.966,138.124 M477.458,103.589  c4.69-2.582,7.034-5.71,7.034-9.385c0-2.545-1.773-4.636-5.32-6.274c-3.547-1.636-7.426-2.454-11.634-2.454  c-3.487,0-6.401,0.582-8.745,1.745c-2.286,1.165-3.428,2.856-3.428,5.075v17.786C465.285,108.335,472.647,106.172,477.458,103.589"/>
<path xmlns="http://www.w3.org/2000/svg" d="M297.333,123.23l-10.281,20.111c0,3.025,2.945,4.828,8.837,5.41v2.569h-40.488v-2.569c4.087-0.691,7.484-2.149,10.189-4.371  l37.604-56.454c0.78-1.275,1.172-2.531,1.172-3.77c0-2.113-1.353-3.279-4.058-3.497V77.98h53.384v2.679  c-2.946,0.218-4.417,1.384-4.417,3.497l33.994,59.786c1.202,1.458,2.524,2.541,3.969,3.252c1.442,0.71,3.364,1.229,5.771,1.557  v2.569h-62.943v-2.569c6.613-0.728,9.92-2.713,9.92-5.957c0-2.33-1.505-4.935-4.509-7.814c-3.006-2.878-6.103-5.009-9.288-6.394  c-4.57-2.04-8.914-3.444-13.031-4.208C309.039,123.613,303.764,123.23,297.333,123.23 M302.923,113.83  c5.17,0.109,9.482,0.546,12.94,1.312c3.457,0.765,7.559,2.15,12.31,4.153l-13.798-26.396L302.923,113.83z"/>
<path xmlns="http://www.w3.org/2000/svg" d="M244.932,129.624l-13.241,23.776c-1.406-1.181-3.43-1.772-6.072-1.772c-0.506,0-1.195,0.045-2.066,0.134  c-0.873,0.09-1.56,0.17-2.066,0.242c-9.559,0.572-17.29,0.859-23.193,0.859c-10.345,0-19.919-0.949-28.717-2.844  c-8.8-1.897-16.375-4.598-22.728-8.104c-6.409-3.543-11.315-7.721-14.717-12.533c-3.402-4.811-5.103-10.08-5.103-15.805  c0-5.474,1.49-10.447,4.47-14.92c2.98-4.472,7.211-8.292,12.694-11.458c5.481-3.167,12.114-5.599,19.902-7.299  c7.787-1.699,16.32-2.55,25.596-2.55c2.924,0,6.269,0.18,10.036,0.538c3.766,0.357,7.534,0.724,11.302,1.099  c3.766,0.376,7.084,0.564,9.951,0.564c3.261,0,5.96-1.037,8.097-3.113l9.698,31.128l-3.795,0.537  c-2.923-4.723-6.312-8.695-10.162-11.915c-3.852-3.22-8.153-5.644-12.904-7.272c-4.752-1.628-9.909-2.442-15.475-2.442  c-6.072,0-11.554,1.038-16.445,3.112c-4.837,2.113-8.632,5.064-11.387,8.856c-2.755,3.793-4.133,8.104-4.133,12.934  c0,6.048,1.869,11.549,5.609,16.503c3.739,4.956,8.898,8.839,15.476,11.647c6.578,2.809,13.887,4.213,21.928,4.213  c5.004,0,9.669-0.59,14-1.771c4.329-1.181,8.151-2.879,11.47-5.099c3.316-2.218,5.987-4.919,8.011-8.104L244.932,129.624z"/>
<polygon xmlns="http://www.w3.org/2000/svg" points="208.093,230.5 230.792,248.113 221.052,221.08 244.82,204.934 216.102,205.842 208.093,178.25 200.08,205.842   171.362,204.934 195.13,221.08 185.39,248.113 "/>
<polygon xmlns="http://www.w3.org/2000/svg" points="322.389,230.5 345.093,248.113 335.353,221.08 359.12,204.934 330.401,205.842 322.389,178.25 314.379,205.842   285.661,204.934 309.43,221.08 299.69,248.113 "/>
<polygon xmlns="http://www.w3.org/2000/svg" points="262.093,302.5 284.792,320.113 275.052,293.08 298.82,276.934 270.102,277.842 262.093,250.25 254.08,277.842   225.362,276.934 249.13,293.08 239.39,320.113 "/>
</svg>